<svg xmlns="http://www.w3.org/2000/svg" width="100" height="76" viewBox="0 0 100 76">
  <g id="NX1ZDAhR-icon_dtfl_sw_0" transform="translate(-1544 -53)">
    <rect id="NX1ZDAhR-&#x5e95;&#x677f;" width="100" height="76" transform="translate(1544 53)" fill="#adb6c4" opacity="0"/>
    <path id="NX1ZDAhR-Path_17363" data-name="Path 17363" d="M-39.167,1101.227c10.053.706,16.95,8.88,16.66,18.942-.294,10.169-7.88,18.057-17.982,18.206q-19.507.287-39.021.009c-10.356-.144-18.09-8.5-17.987-18.975a18.184,18.184,0,0,1,18.369-18.38C-72.721,1100.958-46.048,1100.743-39.167,1101.227Zm-36.854,21.262h3.632c3.64,0,3.574,0,3.572-3.617,0-1.549-.568-1.912-2.067-1.912h-5.128v-3.737c0-3.655,0-3.583-3.579-3.611-1.575-.012-1.967.647-1.905,2.053.076,1.739.018,3.483.018,5.294h-2.969c-3.908,0-3.872,0-3.718,3.842.048,1.193.457,1.739,1.688,1.7,1.618-.051,3.24-.013,5-.013,0,1.453-.011,2.645,0,3.836.041,3.8-.593,3.42,3.61,3.5,1.442.029,1.912-.554,1.861-1.911C-76.069,1126.218-76.021,1124.515-76.021,1122.489Zm33.806-7.156a3.261,3.261,0,0,0,3.3-3.211,3.394,3.394,0,0,0-3.377-3.187,3.3,3.3,0,0,0-3.173,3.164A3.186,3.186,0,0,0-42.215,1115.333Zm-7.167.562a3.278,3.278,0,0,0-3.187,3.314,3.136,3.136,0,0,0,3.4,3.031,3.051,3.051,0,0,0,3.066-3.151A3.214,3.214,0,0,0-49.382,1115.9Zm10.469,10.212A3.226,3.226,0,0,0-42.2,1122.9a3.188,3.188,0,0,0-3.265,3.008,3.233,3.233,0,0,0,3.161,3.33A3.309,3.309,0,0,0-38.913,1126.107Zm3.741-10.2a3.306,3.306,0,0,0-3.214,3.31,3.211,3.211,0,0,0,3.434,3.03,3.161,3.161,0,0,0,3.1-3.16A3.268,3.268,0,0,0-35.172,1115.9Z" transform="translate(1653.998 -1028.545)" fill="#adb6c4"/>
  </g>
</svg>
