<svg xmlns="http://www.w3.org/2000/svg" width="100" height="76" viewBox="0 0 100 76">
  <g id="JfRqlm0s-icon_dtfl_rm_0" transform="translate(-4360.031 -826.946)">
    <rect id="JfRqlm0s-icon_dtfl_rm_1" width="100" height="76" transform="translate(4360.031 826.946)" fill="#adb6c4" opacity="0"/>
    <g id="JfRqlm0s-Group_54892" data-name="Group 54892" transform="translate(4385.158 833.776)">
      <path id="JfRqlm0s-Union_226" data-name="Union 226" d="M9.141,20.7C22.238,11.293,21.418,5.574,15.934,0,41.863,11.133,40.8,34.449,27.3,41.973S21,63.086,21,63.086C-5.414,48.762-3.937,30.113,9.141,20.7ZM24.648,58.988c-1.574-4.145-2.07-9.863,4.578-13.574,8.715-4.859,12.766-10.98,12.367-18.73a26.052,26.052,0,0,0-.937-5.617,33.179,33.179,0,0,1,5.777,10.359,20.581,20.581,0,0,1,.91,4.613,14.3,14.3,0,0,1-.238,4.1A11.051,11.051,0,0,1,45.2,44.52a10.436,10.436,0,0,1-3.484,3.008,71.2,71.2,0,0,1-6.867,3.133c-4.914,2.023-8.465,3.484-10.172,8.328Z" fill="#adb6c4"/>
    </g>
  </g>
</svg>
