<svg xmlns="http://www.w3.org/2000/svg" width="100" height="76" viewBox="0 0 100 76">
  <g id="k0g2ImXA-icon_dtfl_zj_0" transform="translate(981.811 -1516.597)">
    <rect id="k0g2ImXA-&#x5e95;&#x677f;" width="100" height="76" transform="translate(-981.811 1516.597)" fill="#adb6c4" opacity="0"/>
    <path id="k0g2ImXA-Union_199" data-name="Union 199" d="M5.1,41.576a3.452,3.452,0,0,1,2.174-4.832l.117-.035a3.492,3.492,0,0,1,4.067,1.863,21.9,21.9,0,1,0,1.306-21.582L15.6,16.74a3.516,3.516,0,0,1,.618,7L4.753,24.75c-.1.009-.205.013-.31.013a3.517,3.517,0,0,1-3.5-3.2l-.93-10.6a3.516,3.516,0,0,1,7-.616l.2,2.287A28.9,28.9,0,1,1,5.1,41.576Zm32.869-2.536L27.9,33.819A3.516,3.516,0,0,1,26,30.7V19.643a3.516,3.516,0,0,1,7.031,0v8.92L41.2,32.8a3.514,3.514,0,0,1-3.235,6.239Z" transform="translate(-960.772 1526.597)" fill="#adb6c4"/>
  </g>
</svg>
