<svg xmlns="http://www.w3.org/2000/svg" width="100" height="76" viewBox="0 0 100 76">
  <g id="Dk4qYlFQ-icon_dtfl_sc_0" transform="translate(-30 -5)">
    <rect id="Dk4qYlFQ-&#x5e95;&#x677f;" width="100" height="76" transform="translate(30 5)" fill="#adb6c4" opacity="0"/>
    <path id="Dk4qYlFQ-Path_18327" data-name="Path 18327" d="M26.608,6.486a5,5,0,0,1,9.276,0L39.8,16.219a5,5,0,0,0,4.323,3.122L54.594,20a5,5,0,0,1,2.85,8.861l-7.968,6.515A5,5,0,0,0,47.8,40.5l2.583,9.965a5,5,0,0,1-7.488,5.5l-9-5.62a5,5,0,0,0-5.3,0l-9,5.62a5,5,0,0,1-7.488-5.5L14.692,40.5a5,5,0,0,0-1.675-5.125L5.048,28.862A5,5,0,0,1,7.9,20l10.467-.66a5,5,0,0,0,4.323-3.122Z" transform="translate(49.808 12.534)" fill="#adb6c4"/>
  </g>
</svg>
